<svg xmlns="http://www.w3.org/2000/svg" xmlns:xlink="http://www.w3.org/1999/xlink" width="2500" zoomAndPan="magnify" viewBox="0 0 1874.88 749.999995" height="1000" preserveAspectRatio="xMidYMid meet" version="1.0"><defs><g/><clipPath id="id1"><path d="M 0 0.0234375 L 1874.761719 0.0234375 L 1874.761719 749.976562 L 0 749.976562 Z M 0 0.0234375 " clip-rule="nonzero"/></clipPath></defs><g clip-path="url(#id1)"><path fill="#ffffff" d="M 0 0.0234375 L 1874.878906 0.0234375 L 1874.878906 757.476562 L 0 757.476562 Z M 0 0.0234375 " fill-opacity="1" fill-rule="nonzero"/><path fill="#545b69" d="M 0 0.0234375 L 1874.878906 0.0234375 L 1874.878906 749.976562 L 0 749.976562 Z M 0 0.0234375 " fill-opacity="1" fill-rule="nonzero"/><path fill="#ffffff" d="M 0 0.0234375 L 1874.878906 0.0234375 L 1874.878906 749.976562 L 0 749.976562 Z M 0 0.0234375 " fill-opacity="1" fill-rule="nonzero"/><path fill="#545b69" d="M 0 0.0234375 L 1874.878906 0.0234375 L 1874.878906 749.976562 L 0 749.976562 Z M 0 0.0234375 " fill-opacity="1" fill-rule="nonzero"/></g><g fill="#ffd51e" fill-opacity="1"><g transform="translate(195.37926, 148.51707)"><g><path d="M 26.84375 -12.96875 L 89.109375 -12.96875 L 89.109375 0 L 9.578125 0 L 9.421875 -11.890625 L 69.296875 -107.203125 L 10.484375 -107.203125 L 10.484375 -120.25 L 86.71875 -120.25 L 86.875 -108.609375 Z M 26.84375 -12.96875 "/></g></g></g><g fill="#ffd51e" fill-opacity="1"><g transform="translate(296.873432, 148.51707)"><g><path d="M 53.84375 1.65625 C 47.570312 1.65625 41.804688 0.582031 36.546875 -1.5625 C 31.285156 -3.71875 26.78125 -6.722656 23.03125 -10.578125 C 19.289062 -14.429688 16.375 -19 14.28125 -24.28125 C 12.195312 -29.5625 11.15625 -35.316406 11.15625 -41.546875 L 11.15625 -45.015625 C 11.15625 -52.222656 12.3125 -58.675781 14.625 -64.375 C 16.9375 -70.070312 20.003906 -74.890625 23.828125 -78.828125 C 27.648438 -82.765625 32 -85.78125 36.875 -87.875 C 41.75 -89.96875 46.742188 -91.015625 51.859375 -91.015625 C 58.304688 -91.015625 63.9375 -89.898438 68.75 -87.671875 C 73.570312 -85.441406 77.578125 -82.359375 80.765625 -78.421875 C 83.960938 -74.484375 86.34375 -69.84375 87.90625 -64.5 C 89.476562 -59.15625 90.265625 -53.375 90.265625 -47.15625 L 90.265625 -40.296875 L 26.421875 -40.296875 C 26.585938 -36.222656 27.375 -32.394531 28.78125 -28.8125 C 30.1875 -25.238281 32.113281 -22.113281 34.5625 -19.4375 C 37.007812 -16.769531 39.941406 -14.664062 43.359375 -13.125 C 46.773438 -11.582031 50.546875 -10.8125 54.671875 -10.8125 C 60.117188 -10.8125 64.960938 -11.910156 69.203125 -14.109375 C 73.441406 -16.316406 76.96875 -19.238281 79.78125 -22.875 L 89.109375 -15.609375 C 87.617188 -13.347656 85.757812 -11.1875 83.53125 -9.125 C 81.300781 -7.0625 78.726562 -5.226562 75.8125 -3.625 C 72.894531 -2.03125 69.59375 -0.753906 65.90625 0.203125 C 62.21875 1.171875 58.195312 1.65625 53.84375 1.65625 Z M 51.859375 -78.453125 C 48.773438 -78.453125 45.859375 -77.890625 43.109375 -76.765625 C 40.359375 -75.640625 37.878906 -73.988281 35.671875 -71.8125 C 33.472656 -69.632812 31.613281 -66.960938 30.09375 -63.796875 C 28.582031 -60.628906 27.523438 -56.984375 26.921875 -52.859375 L 74.984375 -52.859375 L 74.984375 -54.015625 C 74.828125 -56.984375 74.265625 -59.925781 73.296875 -62.84375 C 72.335938 -65.769531 70.921875 -68.390625 69.046875 -70.703125 C 67.171875 -73.015625 64.816406 -74.882812 61.984375 -76.3125 C 59.148438 -77.738281 55.773438 -78.453125 51.859375 -78.453125 Z M 51.859375 -78.453125 "/></g></g></g><g fill="#ffd51e" fill-opacity="1"><g transform="translate(398.367604, 148.51707)"><g><path d="M 53.84375 1.65625 C 47.570312 1.65625 41.804688 0.582031 36.546875 -1.5625 C 31.285156 -3.71875 26.78125 -6.722656 23.03125 -10.578125 C 19.289062 -14.429688 16.375 -19 14.28125 -24.28125 C 12.195312 -29.5625 11.15625 -35.316406 11.15625 -41.546875 L 11.15625 -45.015625 C 11.15625 -52.222656 12.3125 -58.675781 14.625 -64.375 C 16.9375 -70.070312 20.003906 -74.890625 23.828125 -78.828125 C 27.648438 -82.765625 32 -85.78125 36.875 -87.875 C 41.75 -89.96875 46.742188 -91.015625 51.859375 -91.015625 C 58.304688 -91.015625 63.9375 -89.898438 68.75 -87.671875 C 73.570312 -85.441406 77.578125 -82.359375 80.765625 -78.421875 C 83.960938 -74.484375 86.34375 -69.84375 87.90625 -64.5 C 89.476562 -59.15625 90.265625 -53.375 90.265625 -47.15625 L 90.265625 -40.296875 L 26.421875 -40.296875 C 26.585938 -36.222656 27.375 -32.394531 28.78125 -28.8125 C 30.1875 -25.238281 32.113281 -22.113281 34.5625 -19.4375 C 37.007812 -16.769531 39.941406 -14.664062 43.359375 -13.125 C 46.773438 -11.582031 50.546875 -10.8125 54.671875 -10.8125 C 60.117188 -10.8125 64.960938 -11.910156 69.203125 -14.109375 C 73.441406 -16.316406 76.96875 -19.238281 79.78125 -22.875 L 89.109375 -15.609375 C 87.617188 -13.347656 85.757812 -11.1875 83.53125 -9.125 C 81.300781 -7.0625 78.726562 -5.226562 75.8125 -3.625 C 72.894531 -2.03125 69.59375 -0.753906 65.90625 0.203125 C 62.21875 1.171875 58.195312 1.65625 53.84375 1.65625 Z M 51.859375 -78.453125 C 48.773438 -78.453125 45.859375 -77.890625 43.109375 -76.765625 C 40.359375 -75.640625 37.878906 -73.988281 35.671875 -71.8125 C 33.472656 -69.632812 31.613281 -66.960938 30.09375 -63.796875 C 28.582031 -60.628906 27.523438 -56.984375 26.921875 -52.859375 L 74.984375 -52.859375 L 74.984375 -54.015625 C 74.828125 -56.984375 74.265625 -59.925781 73.296875 -62.84375 C 72.335938 -65.769531 70.921875 -68.390625 69.046875 -70.703125 C 67.171875 -73.015625 64.816406 -74.882812 61.984375 -76.3125 C 59.148438 -77.738281 55.773438 -78.453125 51.859375 -78.453125 Z M 51.859375 -78.453125 "/></g></g></g><g fill="#ffd51e" fill-opacity="1"><g transform="translate(505.823833, 148.51707)"><g><path d="M 78.296875 -22.71875 C 78.296875 -25.46875 77.609375 -27.859375 76.234375 -29.890625 C 74.859375 -31.929688 72.972656 -33.679688 70.578125 -35.140625 C 68.179688 -36.597656 65.410156 -37.820312 62.265625 -38.8125 C 59.128906 -39.800781 55.800781 -40.65625 52.28125 -41.375 C 47.988281 -42.257812 43.832031 -43.320312 39.8125 -44.5625 C 35.789062 -45.800781 32.207031 -47.382812 29.0625 -49.3125 C 25.925781 -51.238281 23.421875 -53.585938 21.546875 -56.359375 C 19.679688 -59.140625 18.75 -62.570312 18.75 -66.65625 C 18.75 -70.507812 19.710938 -73.945312 21.640625 -76.96875 C 23.566406 -80 26.097656 -82.5625 29.234375 -84.65625 C 32.367188 -86.75 35.945312 -88.332031 39.96875 -89.40625 C 43.988281 -90.476562 48.117188 -91.015625 52.359375 -91.015625 C 57.203125 -91.015625 61.726562 -90.421875 65.9375 -89.234375 C 70.15625 -88.046875 73.847656 -86.3125 77.015625 -84.03125 C 80.179688 -81.75 82.695312 -78.957031 84.5625 -75.65625 C 86.4375 -72.351562 87.457031 -68.582031 87.625 -64.34375 L 77.71875 -64.34375 C 77.601562 -67.195312 76.828125 -69.765625 75.390625 -72.046875 C 73.960938 -74.335938 72.066406 -76.253906 69.703125 -77.796875 C 67.335938 -79.335938 64.65625 -80.519531 61.65625 -81.34375 C 58.65625 -82.175781 55.554688 -82.59375 52.359375 -82.59375 C 49.390625 -82.59375 46.484375 -82.273438 43.640625 -81.640625 C 40.804688 -81.003906 38.273438 -80.039062 36.046875 -78.75 C 33.816406 -77.457031 32.023438 -75.832031 30.671875 -73.875 C 29.328125 -71.914062 28.65625 -69.617188 28.65625 -66.984375 C 28.601562 -64.171875 29.25 -61.8125 30.59375 -59.90625 C 31.945312 -58.007812 33.78125 -56.414062 36.09375 -55.125 C 38.40625 -53.832031 41.113281 -52.757812 44.21875 -51.90625 C 47.332031 -51.050781 50.648438 -50.265625 54.171875 -49.546875 C 58.691406 -48.617188 63 -47.476562 67.09375 -46.125 C 71.195312 -44.78125 74.816406 -43.101562 77.953125 -41.09375 C 81.097656 -39.082031 83.578125 -36.613281 85.390625 -33.6875 C 87.210938 -30.769531 88.125 -27.273438 88.125 -23.203125 C 88.125 -19.023438 87.117188 -15.378906 85.109375 -12.265625 C 83.097656 -9.148438 80.453125 -6.5625 77.171875 -4.5 C 73.898438 -2.4375 70.15625 -0.894531 65.9375 0.125 C 61.726562 1.144531 57.394531 1.65625 52.9375 1.65625 C 47.925781 1.65625 43.203125 1.050781 38.765625 -0.15625 C 34.335938 -1.375 30.429688 -3.125 27.046875 -5.40625 C 23.660156 -7.695312 20.945312 -10.492188 18.90625 -13.796875 C 16.875 -17.097656 15.773438 -20.84375 15.609375 -25.03125 L 25.515625 -25.03125 C 25.847656 -21.5 26.910156 -18.550781 28.703125 -16.1875 C 30.492188 -13.820312 32.695312 -11.9375 35.3125 -10.53125 C 37.925781 -9.125 40.773438 -8.128906 43.859375 -7.546875 C 46.941406 -6.972656 49.96875 -6.6875 52.9375 -6.6875 C 55.96875 -6.6875 58.984375 -7.003906 61.984375 -7.640625 C 64.984375 -8.273438 67.679688 -9.238281 70.078125 -10.53125 C 72.472656 -11.820312 74.425781 -13.472656 75.9375 -15.484375 C 77.457031 -17.492188 78.242188 -19.90625 78.296875 -22.71875 Z M 78.296875 -22.71875 "/></g></g></g><g fill="#ffd51e" fill-opacity="1"><g transform="translate(607.318005, 148.51707)"><g><path d="M 25.84375 -72.09375 C 28.988281 -77.820312 33.175781 -82.390625 38.40625 -85.796875 C 43.632812 -89.210938 49.609375 -90.953125 56.328125 -91.015625 C 61.222656 -91.015625 65.554688 -90.253906 69.328125 -88.734375 C 73.097656 -87.222656 76.265625 -85.019531 78.828125 -82.125 C 81.390625 -79.238281 83.34375 -75.6875 84.6875 -71.46875 C 86.039062 -67.257812 86.71875 -62.457031 86.71875 -57.0625 L 86.71875 0 L 76.8125 0 L 76.8125 -57.0625 C 76.8125 -61.03125 76.34375 -64.582031 75.40625 -67.71875 C 74.46875 -70.863281 73.046875 -73.519531 71.140625 -75.6875 C 69.242188 -77.863281 66.863281 -79.53125 64 -80.6875 C 61.144531 -81.84375 57.789062 -82.421875 53.9375 -82.421875 C 50.789062 -82.421875 47.785156 -81.925781 44.921875 -80.9375 C 42.066406 -79.945312 39.425781 -78.570312 37 -76.8125 C 34.570312 -75.050781 32.410156 -72.972656 30.515625 -70.578125 C 28.617188 -68.179688 27.0625 -65.550781 25.84375 -62.6875 L 25.84375 0 L 15.9375 0 L 15.9375 -126.859375 L 25.84375 -126.859375 Z M 25.84375 -72.09375 "/></g></g></g><g fill="#ffd51e" fill-opacity="1"><g transform="translate(708.812177, 148.51707)"><g><path d="M 77.390625 0 C 76.785156 -1.8125 76.316406 -3.832031 75.984375 -6.0625 C 75.648438 -8.300781 75.429688 -10.578125 75.328125 -12.890625 C 73.617188 -10.796875 71.632812 -8.863281 69.375 -7.09375 C 67.113281 -5.332031 64.648438 -3.804688 61.984375 -2.515625 C 59.316406 -1.222656 56.441406 -0.207031 53.359375 0.53125 C 50.273438 1.28125 47.050781 1.65625 43.6875 1.65625 C 39.5 1.65625 35.601562 1.050781 32 -0.15625 C 28.394531 -1.375 25.253906 -3.082031 22.578125 -5.28125 C 19.910156 -7.488281 17.820312 -10.144531 16.3125 -13.25 C 14.800781 -16.363281 14.046875 -19.847656 14.046875 -23.703125 C 14.046875 -28.828125 15.171875 -33.175781 17.421875 -36.75 C 19.679688 -40.332031 22.738281 -43.238281 26.59375 -45.46875 C 30.445312 -47.695312 34.90625 -49.332031 39.96875 -50.375 C 45.039062 -51.425781 50.351562 -51.953125 55.90625 -51.953125 L 75.234375 -51.953125 L 75.234375 -62.109375 C 75.179688 -65.460938 74.519531 -68.421875 73.25 -70.984375 C 71.988281 -73.546875 70.269531 -75.691406 68.09375 -77.421875 C 65.914062 -79.160156 63.328125 -80.46875 60.328125 -81.34375 C 57.328125 -82.226562 54.066406 -82.671875 50.546875 -82.671875 C 47.347656 -82.671875 44.300781 -82.253906 41.40625 -81.421875 C 38.519531 -80.597656 35.960938 -79.414062 33.734375 -77.875 C 31.503906 -76.332031 29.703125 -74.445312 28.328125 -72.21875 C 26.953125 -69.988281 26.207031 -67.472656 26.09375 -64.671875 L 16.1875 -64.75 C 16.351562 -68.550781 17.359375 -72.046875 19.203125 -75.234375 C 21.046875 -78.429688 23.535156 -81.195312 26.671875 -83.53125 C 29.816406 -85.875 33.46875 -87.707031 37.625 -89.03125 C 41.78125 -90.351562 46.222656 -91.015625 50.953125 -91.015625 C 55.691406 -91.015625 60.140625 -90.40625 64.296875 -89.1875 C 68.453125 -87.976562 72.054688 -86.160156 75.109375 -83.734375 C 78.171875 -81.316406 80.59375 -78.289062 82.375 -74.65625 C 84.164062 -71.019531 85.085938 -66.78125 85.140625 -61.9375 L 85.140625 -18.671875 C 85.140625 -15.691406 85.398438 -12.6875 85.921875 -9.65625 C 86.453125 -6.632812 87.101562 -3.742188 87.875 -0.984375 L 87.953125 0 Z M 44.765625 -7.109375 C 48.234375 -7.046875 51.550781 -7.453125 54.71875 -8.328125 C 57.882812 -9.210938 60.785156 -10.441406 63.421875 -12.015625 C 66.066406 -13.585938 68.40625 -15.457031 70.4375 -17.625 C 72.476562 -19.800781 74.078125 -22.1875 75.234375 -24.78125 L 75.234375 -44.34375 L 57.234375 -44.34375 C 52.878906 -44.34375 48.691406 -44.015625 44.671875 -43.359375 C 40.660156 -42.703125 37.113281 -41.613281 34.03125 -40.09375 C 30.945312 -38.582031 28.484375 -36.5625 26.640625 -34.03125 C 24.796875 -31.5 23.875 -28.332031 23.875 -24.53125 C 23.875 -21.832031 24.421875 -19.410156 25.515625 -17.265625 C 26.617188 -15.117188 28.101562 -13.285156 29.96875 -11.765625 C 31.84375 -10.253906 34.046875 -9.097656 36.578125 -8.296875 C 39.117188 -7.503906 41.847656 -7.109375 44.765625 -7.109375 Z M 44.765625 -7.109375 "/></g></g></g><g fill="#ffd51e" fill-opacity="1"><g transform="translate(810.306365, 148.51707)"><g><path d="M 25.03125 -89.359375 L 25.765625 -72.59375 C 28.898438 -78.15625 33.082031 -82.597656 38.3125 -85.921875 C 43.550781 -89.253906 49.5 -90.953125 56.15625 -91.015625 C 65.957031 -91.015625 73.445312 -88.082031 78.625 -82.21875 C 83.800781 -76.351562 86.414062 -68.023438 86.46875 -57.234375 L 86.46875 0 L 76.5625 0 L 76.5625 -57.0625 C 76.507812 -65.269531 74.632812 -71.5625 70.9375 -75.9375 C 67.25 -80.3125 61.523438 -82.472656 53.765625 -82.421875 C 50.566406 -82.421875 47.519531 -81.894531 44.625 -80.84375 C 41.738281 -79.800781 39.097656 -78.367188 36.703125 -76.546875 C 34.316406 -74.734375 32.195312 -72.585938 30.34375 -70.109375 C 28.5 -67.640625 27 -64.945312 25.84375 -62.03125 L 25.84375 0 L 15.9375 0 L 15.9375 -89.359375 Z M 25.03125 -89.359375 "/></g></g></g><path stroke-linecap="butt" transform="matrix(12.002584, -0.0292446, 0.0291827, 11.977179, 925.244926, 116.771896)" fill="none" stroke-linejoin="miter" d="M 0.0000969797 0.000128928 L 69.168472 0.0000759773 " stroke="#ffd51e" stroke-width="1" stroke-opacity="1" stroke-miterlimit="4"/><path stroke-linecap="butt" transform="matrix(0.000000000000000734, -11.993842, 11.977215, 0.000000000000000733, 81.735544, 682.612252)" fill="none" stroke-linejoin="miter" d="M -0.0000857763 -0.0000976341 L 47.834356 -0.0000976341 " stroke="#ffd51e" stroke-width="1" stroke-opacity="1" stroke-miterlimit="4"/><path stroke-linecap="butt" transform="matrix(0.000000000000000734, -11.992337, 11.999232, 0.000000000000000735, 1749.248664, 685.444383)" fill="none" stroke-linejoin="miter" d="M -0.0000775014 0.000111338 L 47.590208 0.000111338 " stroke="#ffd51e" stroke-width="1" stroke-opacity="1" stroke-miterlimit="4"/><path stroke-linecap="butt" transform="matrix(11.985739, -0.105369, 0.10529, 11.976752, 79.790985, 116.140273)" fill="none" stroke-linejoin="miter" d="M -0.000160638 0.0000279441 L 7.195891 0.000063719 " stroke="#ffd51e" stroke-width="1" stroke-opacity="1" stroke-miterlimit="4"/><g fill="#ffd51e" fill-opacity="1"><g transform="translate(137.787854, 563.274479)"><g><path d="M 308.171875 0 L 237.875 0 L 237.875 -146.234375 L 100.765625 -146.234375 L 100.765625 0 L 30.46875 0 L 30.46875 -341.21875 L 100.765625 -341.21875 L 100.765625 -202.953125 L 237.875 -202.953125 L 237.875 -341.21875 L 308.171875 -341.21875 Z M 308.171875 0 "/></g></g><g transform="translate(476.891815, 563.274479)"><g><path d="M 223.109375 -70.3125 L 99.828125 -70.3125 L 76.40625 0 L 1.640625 0 L 128.65625 -341.21875 L 193.8125 -341.21875 L 321.53125 0 L 246.765625 0 Z M 118.8125 -127.25 L 204.125 -127.25 L 161.234375 -254.96875 Z M 118.8125 -127.25 "/></g></g><g transform="translate(799.825647, 563.274479)"><g><path d="M 122.328125 -341.21875 L 209.984375 -93.734375 L 297.15625 -341.21875 L 389.5 -341.21875 L 389.5 0 L 318.953125 0 L 318.953125 -93.265625 L 325.984375 -254.265625 L 233.890625 0 L 185.609375 0 L 93.734375 -254.03125 L 100.765625 -93.265625 L 100.765625 0 L 30.46875 0 L 30.46875 -341.21875 Z M 122.328125 -341.21875 "/></g></g><g transform="translate(1220.248938, 563.274479)"><g><path d="M 105.21875 0 L 34.921875 0 L 34.921875 -341.21875 L 105.21875 -341.21875 Z M 105.21875 0 "/></g></g><g transform="translate(1360.155688, 563.274479)"><g><path d="M 30.46875 0 L 30.46875 -341.21875 L 135.453125 -341.21875 C 165.453125 -341.21875 192.285156 -334.457031 215.953125 -320.9375 C 239.617188 -307.425781 258.09375 -288.210938 271.375 -263.296875 C 284.65625 -238.378906 291.296875 -210.0625 291.296875 -178.34375 L 291.296875 -162.640625 C 291.296875 -130.921875 284.769531 -102.71875 271.71875 -78.03125 C 258.675781 -53.351562 240.28125 -34.21875 216.53125 -20.625 C 192.789062 -7.03125 166 -0.15625 136.15625 0 Z M 100.765625 -284.265625 L 100.765625 -56.484375 L 134.75 -56.484375 C 162.25 -56.484375 183.265625 -65.460938 197.796875 -83.421875 C 212.328125 -101.390625 219.75 -127.09375 220.0625 -160.53125 L 220.0625 -178.578125 C 220.0625 -213.265625 212.875 -239.550781 198.5 -257.4375 C 184.125 -275.320312 163.109375 -284.265625 135.453125 -284.265625 Z M 100.765625 -284.265625 "/></g></g></g><path stroke-linecap="butt" transform="matrix(12.000153, 0, 0, 11.999232, 76.225133, 685.445775)" fill="none" stroke-linejoin="miter" d="M 0.000119165 -0.0000385431 L 139.927702 -0.0000385431 " stroke="#ffd51e" stroke-width="1" stroke-opacity="1" stroke-miterlimit="4"/></svg>